<?xml version="1.0" encoding="utf-8"?>
<!-- Generator: Adobe Illustrator 17.1.0, SVG Export Plug-In . SVG Version: 6.00 Build 0)  -->
<!DOCTYPE svg PUBLIC "-//W3C//DTD SVG 1.1//EN" "http://www.w3.org/Graphics/SVG/1.1/DTD/svg11.dtd">
<svg version="1.1" id="Layer_1" xmlns="http://www.w3.org/2000/svg" xmlns:xlink="http://www.w3.org/1999/xlink" x="0px" y="0px"
	 width="40px" height="40px" viewBox="0 0 40 40" enable-background="new 0 0 40 40" xml:space="preserve">
<g>
	<g>
		<path fill="#333333" d="M25.3,31.5c-0.6,0-1.2-0.2-1.7-0.5c-0.7-0.4-1.2-1-1.5-1.8c-0.2-0.5-0.5-0.8-1-1l-0.3-0.1
			c-0.3-0.1-0.7,0-1,0.1c-1.9,1.1-4.5,0.8-6.2-0.8c-1.5-1.4-2.1-3.6-1.4-5.5c0.7-2.2,2.8-3.6,5-3.6c0.9,0,1.9,0.3,2.7,0.7
			c1.5,0.9,2.5,2.5,2.6,4.2c0,0.5,0.3,0.9,0.7,1.1l0.3,0.2c0.2,0.1,0.5,0.2,0.7,0.2l0,0c0.1,0,0.3,0,0.4,0c1-0.2,2.1,0.1,2.9,0.8
			c1,0.9,1.4,2.4,0.9,3.6C27.9,30.6,26.7,31.5,25.3,31.5z M20.5,27.2c0.2,0,0.4,0,0.5,0.1l0.3,0.1c0.8,0.2,1.4,0.8,1.7,1.6
			c0.2,0.5,0.6,1,1,1.3c0.4,0.2,0.8,0.3,1.2,0.3c1,0,1.9-0.6,2.2-1.6c0.3-0.9,0.1-1.9-0.6-2.5c-0.6-0.5-1.3-0.7-2.1-0.6
			c-0.2,0-0.4,0.1-0.6,0.1l0,0c-0.5,0-0.9-0.1-1.3-0.3l-0.3-0.2c-0.7-0.4-1.1-1.1-1.1-1.9c-0.1-1.4-0.9-2.7-2.1-3.4
			c-0.7-0.4-1.4-0.6-2.2-0.6c-1.9,0-3.5,1.2-4.1,3c-0.5,1.6-0.1,3.3,1.1,4.5c1.4,1.3,3.4,1.5,5,0.6C19.7,27.2,20.1,27.2,20.5,27.2z"
			/>
	</g>
	<g>
		<path fill="#333333" d="M25.3,34.6C25.3,34.6,25.3,34.6,25.3,34.6c-1.2,0-2.3-0.3-3.3-0.9c-0.7-0.4-1.3-1-1.8-1.6
			c-0.2-0.3-0.6-0.4-0.9-0.4c-2.4,0.6-5,0-7-1.6C9.3,28,8.2,24,9.6,20.7c1.4-3.5,4.9-5.6,8.6-5.2c0.6,0.1,1-0.3,1-0.9
			c0-0.9,0.3-1.7,0.7-2.4c0.9-1.6,2.7-2.6,4.5-2.6c1.3,0,2.6,0.5,3.6,1.4c1.5,1.3,2,3.5,1.4,5.4c-0.6,1.7-1.9,3-3.6,3.4
			c-0.3,0.1-0.5,0.2-0.6,0.5c-0.1,0.2-0.1,0.5-0.1,0.7c0.1,0.4,0.4,0.6,0.8,0.6c0.8,0.1,1.6,0.3,2.3,0.7c1.5,0.8,2.7,2.2,3.2,3.9
			c0.5,1.7,0.3,3.5-0.6,5C29.8,33.4,27.6,34.6,25.3,34.6z M19.4,30.7c0.6,0,1.2,0.3,1.5,0.8c0.4,0.5,0.9,1,1.5,1.4
			c0.8,0.5,1.8,0.8,2.8,0.8c2,0,3.8-1.1,4.8-2.8c0.7-1.3,0.9-2.8,0.5-4.3c-0.4-1.5-1.4-2.7-2.7-3.3c-0.6-0.3-1.3-0.5-2-0.6
			c-0.8-0.1-1.4-0.6-1.6-1.3c-0.2-0.5-0.1-1.1,0.1-1.5c0.2-0.5,0.7-0.8,1.2-1c1.4-0.4,2.4-1.4,2.9-2.8c0.5-1.5,0-3.3-1.1-4.3
			c-0.8-0.7-1.8-1.1-2.9-1.1c-1.5,0-2.9,0.8-3.6,2.1c-0.4,0.6-0.5,1.2-0.6,1.9c0,1.1-1,1.9-2.1,1.8c-3.3-0.3-6.4,1.6-7.6,4.6
			c-1.2,3-0.2,6.4,2.3,8.4c1.8,1.4,4,1.9,6.2,1.4C19.1,30.7,19.3,30.7,19.4,30.7z"/>
	</g>
	<g>
		<path fill="#333333" d="M24.4,17c-0.4,0-0.8-0.1-1.1-0.3c-0.5-0.3-0.9-0.8-1-1.3s-0.1-1.2,0.2-1.7c0.6-1,2-1.4,3-0.8
			c1,0.6,1.4,2,0.8,3C25.9,16.6,25.2,17,24.4,17z M24.4,13.6c-0.4,0-0.8,0.2-1,0.6c-0.2,0.3-0.2,0.6-0.1,0.9
			c0.1,0.3,0.3,0.6,0.6,0.7c0.5,0.3,1.3,0.1,1.6-0.4c0.3-0.6,0.1-1.3-0.4-1.6C24.8,13.7,24.6,13.6,24.4,13.6z"/>
	</g>
	<g>
		<path fill="#333333" d="M17.3,26.5c-0.5,0-1-0.1-1.4-0.4c-1.3-0.8-1.8-2.5-1-3.8c0.5-0.9,1.4-1.4,2.4-1.4c0.5,0,1,0.1,1.4,0.4
			c1.3,0.8,1.8,2.5,1,3.8C19.2,26,18.3,26.5,17.3,26.5z M17.3,21.9c-0.6,0-1.2,0.3-1.6,0.9c-0.5,0.9-0.2,2,0.6,2.5
			c0.8,0.5,2,0.2,2.5-0.6c0.5-0.9,0.2-2-0.6-2.5C17.9,21.9,17.6,21.9,17.3,21.9z"/>
	</g>
	<g>
		<path fill="#333333" d="M13.7,12.2c-0.5,0-1-0.1-1.4-0.4c-0.6-0.4-1.1-1-1.3-1.7c-0.2-0.7-0.1-1.5,0.3-2.1c0.7-1.3,2.5-1.7,3.8-1
			c0.6,0.4,1.1,1,1.3,1.7c0.2,0.7,0.1,1.5-0.3,2.1C15.6,11.7,14.7,12.2,13.7,12.2z M13.8,7.7c-0.6,0-1.2,0.3-1.5,0.9
			C12,9,11.9,9.5,12,9.9c0.1,0.5,0.4,0.8,0.8,1.1c0.8,0.5,1.9,0.2,2.4-0.6c0.2-0.4,0.3-0.9,0.2-1.3C15.3,8.6,15,8.2,14.6,8
			C14.4,7.8,14.1,7.7,13.8,7.7z"/>
	</g>
</g>
</svg>
