<?xml version="1.0" encoding="utf-8"?>
<!-- Generator: Adobe Illustrator 17.1.0, SVG Export Plug-In . SVG Version: 6.00 Build 0)  -->
<!DOCTYPE svg PUBLIC "-//W3C//DTD SVG 1.1//EN" "http://www.w3.org/Graphics/SVG/1.1/DTD/svg11.dtd">
<svg version="1.1" id="Layer_1" xmlns="http://www.w3.org/2000/svg" xmlns:xlink="http://www.w3.org/1999/xlink" x="0px" y="0px"
	 width="24px" height="24px" viewBox="0 0 24 24" enable-background="new 0 0 24 24" xml:space="preserve">
<g>
	<g>
		<path fill="#333333" d="M12,3.9c0.5,0,0.9,0.4,0.9,0.9S12.5,5.7,12,5.7s-0.9-0.4-0.9-0.9S11.5,3.9,12,3.9 M12,2.9
			c-1,0-1.9,0.9-1.9,1.9S11,6.7,12,6.7s1.9-0.9,1.9-1.9S13,2.9,12,2.9L12,2.9z"/>
	</g>
	<g>
		<path fill="#333333" d="M19.5,9.6c0.5,0,0.9,0.4,0.9,0.9s-0.4,0.9-0.9,0.9s-0.9-0.4-0.9-0.9S19,9.6,19.5,9.6 M19.5,8.6
			c-1,0-1.9,0.9-1.9,1.9s0.9,1.9,1.9,1.9s1.9-0.9,1.9-1.9S20.5,8.6,19.5,8.6L19.5,8.6z"/>
	</g>
	<g>
		<path fill="#333333" d="M16.5,18.9c0.5,0,0.9,0.4,0.9,0.9s-0.4,0.9-0.9,0.9s-0.9-0.4-0.9-0.9S16,18.9,16.5,18.9 M16.5,17.9
			c-1,0-1.9,0.9-1.9,1.9s0.9,1.9,1.9,1.9s1.9-0.9,1.9-1.9S17.5,17.9,16.5,17.9L16.5,17.9z"/>
	</g>
	<g>
		<path fill="#333333" d="M7.5,18.6c0.5,0,0.9,0.4,0.9,0.9S8,20.4,7.5,20.4S6.6,20,6.6,19.5S7,18.6,7.5,18.6 M7.5,17.6
			c-1,0-1.9,0.9-1.9,1.9s0.9,1.9,1.9,1.9s1.9-0.9,1.9-1.9S8.5,17.6,7.5,17.6L7.5,17.6z"/>
	</g>
	<g>
		<path fill="#333333" d="M4.5,9.6c0.5,0,0.9,0.4,0.9,0.9S5,11.4,4.5,11.4S3.6,11,3.6,10.5S4,9.6,4.5,9.6 M4.5,8.6
			c-1,0-1.9,0.9-1.9,1.9s0.9,1.9,1.9,1.9s1.9-0.9,1.9-1.9S5.5,8.6,4.5,8.6L4.5,8.6z"/>
	</g>
	<g>
		<rect x="9" y="19" fill="#333333" width="6" height="1"/>
	</g>
	<g>
		<rect x="17.6" y="11.3" transform="matrix(0.9536 0.3009 -0.3009 0.9536 5.345 -4.7571)" fill="#333333" width="1" height="7.4"/>
	</g>
	<g>
		<rect x="11.9" y="7.2" transform="matrix(0.7961 0.6051 -0.6051 0.7961 7.8621 -7.9363)" fill="#333333" width="7.6" height="1"/>
	</g>
	<g>
		<rect x="7.7" y="3.9" transform="matrix(0.5994 0.8005 -0.8005 0.5994 9.4632 -3.5042)" fill="#333333" width="1" height="7.5"/>
	</g>
	<g>
		<rect x="2.2" y="14.4" transform="matrix(0.2987 0.9544 -0.9544 0.2987 18.3523 4.8432)" fill="#333333" width="7.5" height="1"/>
	</g>
</g>
</svg>
