<?xml version="1.0" encoding="utf-8"?>
<!-- Generator: Adobe Illustrator 17.1.0, SVG Export Plug-In . SVG Version: 6.00 Build 0)  -->
<!DOCTYPE svg PUBLIC "-//W3C//DTD SVG 1.1//EN" "http://www.w3.org/Graphics/SVG/1.1/DTD/svg11.dtd">
<svg version="1.1" id="Layer_1" xmlns="http://www.w3.org/2000/svg" xmlns:xlink="http://www.w3.org/1999/xlink" x="0px" y="0px"
	 width="24px" height="24px" viewBox="0 0 24 24" enable-background="new 0 0 24 24" xml:space="preserve">
<g>
	<g>
		<path fill="#333333" d="M12,21.5c-5.2,0-9.5-4.3-9.5-9.5S6.8,2.5,12,2.5s9.5,4.3,9.5,9.5S17.2,21.5,12,21.5z M12,3.5
			c-4.7,0-8.5,3.8-8.5,8.5s3.8,8.5,8.5,8.5s8.5-3.8,8.5-8.5S16.7,3.5,12,3.5z M16.5,8.9c-0.8,0-1.4-0.6-1.4-1.4s0.6-1.4,1.4-1.4
			s1.4,0.6,1.4,1.4S17.3,8.9,16.5,8.9z M16.5,7.1c-0.2,0-0.4,0.2-0.4,0.4s0.2,0.4,0.4,0.4s0.4-0.2,0.4-0.4S16.7,7.1,16.5,7.1z"/>
	</g>
</g>
<g>
	<path fill="#333333" d="M12,16.1c-2.3,0-4.1-1.8-4.1-4.1S9.7,7.9,12,7.9s4.1,1.8,4.1,4.1S14.3,16.1,12,16.1z M12,8.9
		c-1.7,0-3.1,1.4-3.1,3.1s1.4,3.1,3.1,3.1s3.1-1.4,3.1-3.1S13.7,8.9,12,8.9z"/>
</g>
</svg>
