<?xml version="1.0" encoding="utf-8"?>
<!-- Generator: Adobe Illustrator 17.1.0, SVG Export Plug-In . SVG Version: 6.00 Build 0)  -->
<!DOCTYPE svg PUBLIC "-//W3C//DTD SVG 1.1//EN" "http://www.w3.org/Graphics/SVG/1.1/DTD/svg11.dtd">
<svg version="1.1" id="Layer_1" xmlns="http://www.w3.org/2000/svg" xmlns:xlink="http://www.w3.org/1999/xlink" x="0px" y="0px"
	 width="24px" height="24px" viewBox="0 0 24 24" enable-background="new 0 0 24 24" xml:space="preserve">
<g>
	<g>
		<path fill="#333333" d="M18.9,19H3.8c-1.8,0-3.2-2-3.2-3.8c0-1.6,1.2-3.5,2.8-3.8c0-0.3-0.1-0.6-0.1-0.9c0-4.1,3.3-7.4,7.4-7.4
			c3.4,0,6.4,2.3,7.2,5.6c0.4-0.1,0.7-0.1,1.1-0.1c2.6,0,4.6,2.7,4.6,5.2S21.5,19,18.9,19z M4,11.9v0.5c-1,0-2.4,1.5-2.4,2.8
			S2.5,18,3.8,18h15.1c2,0,3.6-2.2,3.6-4.2c0-1.9-1.6-4.2-3.6-4.2c-0.4,0-0.9,0.1-1.3,0.2L17,10.1l-0.1-0.6
			c-0.5-3.1-3.1-5.4-6.3-5.4c-3.5,0-6.4,2.9-6.4,6.4c0,0.4,0,0.9,0.1,1.3l0.1,0.6l-0.6,0l0-0.5L4,11.9z"/>
	</g>
	<g>
		<polygon fill="#333333" points="10,21 9.1,20.5 11.4,16 8.7,16 11.8,9.6 12.7,10 10.3,15 13.1,15 		"/>
	</g>
</g>
</svg>
