<?xml version="1.0" encoding="utf-8"?>
<!-- Generator: Adobe Illustrator 17.1.0, SVG Export Plug-In . SVG Version: 6.00 Build 0)  -->
<!DOCTYPE svg PUBLIC "-//W3C//DTD SVG 1.1//EN" "http://www.w3.org/Graphics/SVG/1.1/DTD/svg11.dtd">
<svg version="1.1" id="Layer_1" xmlns="http://www.w3.org/2000/svg" xmlns:xlink="http://www.w3.org/1999/xlink" x="0px" y="0px"
	 width="24px" height="24px" viewBox="0 0 24 24" enable-background="new 0 0 24 24" xml:space="preserve">
<g>
	<rect x="11" y="11" fill="#333333" width="1" height="11"/>
</g>
<g>
	<polygon fill="#333333" points="11.5,23 6.6,18.2 7.4,17.4 11.5,21.6 15.6,17.4 16.4,18.2 	"/>
</g>
<g>
	<path fill="#333333" d="M18,16h-2v-1h2c1.6,0,3.1-1.7,3.1-3.5c0-1.8-1.5-3.4-3.1-3.4c-0.5,0-0.8,0.1-1.1,0.2l-0.6,0.2l-0.1-0.6
		c-0.4-2.7-2.8-4.7-5.5-4.7c-3.1,0-5.5,2.5-5.5,5.5c0,0.4,0,0.7,0.1,1.1l0.1,0.6l-0.6,0L4.8,10h0l0,0.5c-1.1,0-1.9,1.2-1.9,2.3
		S3.7,15,4.7,15H7v1H4.7c-1.7,0-2.9-1.7-2.9-3.3c0-1.4,1-3,2.5-3.2c0-0.2,0-0.5,0-0.7c0-3.6,2.9-6.5,6.5-6.5c3,0,5.6,2.1,6.3,5
		c0.3,0,0.6-0.1,0.9-0.1c2.2,0,4.1,2.1,4.1,4.4C22.2,13.9,20.2,16,18,16z"/>
</g>
</svg>
