<?xml version="1.0" encoding="utf-8"?>
<!-- Generator: Adobe Illustrator 17.1.0, SVG Export Plug-In . SVG Version: 6.00 Build 0)  -->
<!DOCTYPE svg PUBLIC "-//W3C//DTD SVG 1.1//EN" "http://www.w3.org/Graphics/SVG/1.1/DTD/svg11.dtd">
<svg version="1.1" id="Layer_1" xmlns="http://www.w3.org/2000/svg" xmlns:xlink="http://www.w3.org/1999/xlink" x="0px" y="0px"
	 width="24px" height="24px" viewBox="0 0 24 24" enable-background="new 0 0 24 24" xml:space="preserve">
<g>
	<g>
		<g>
			<rect x="8" y="12" fill="#333333" width="7" height="1"/>
		</g>
		<g>
			<rect x="11" y="9" fill="#333333" width="1" height="7"/>
		</g>
	</g>
	<g>
		<path fill="#333333" d="M18.9,19H3.8c-1.7,0-3.2-1.6-3.2-3.5c0-1.7,1.3-3.2,2.8-3.5c0-0.3-0.1-0.6-0.1-0.9c0-4.1,3.3-7.4,7.4-7.4
			c3.4,0,6.4,2.3,7.2,5.6c0.4-0.1,0.7-0.1,1.1-0.1c2.5,0,4.6,2.2,4.6,4.9S21.4,19,18.9,19z M4,12.5V13c-1,0-2.4,1.2-2.4,2.5
			S2.6,18,3.8,18h15.1c1.9,0,3.6-1.8,3.6-3.9s-1.7-3.9-3.6-3.9c-0.4,0-0.9,0.1-1.3,0.2L17,10.7l-0.1-0.6c-0.5-3.1-3.1-5.4-6.3-5.4
			c-3.5,0-6.4,2.9-6.4,6.4c0,0.4,0,0.9,0.1,1.3L4.5,13l-0.6,0l0-0.5L4,12.5z"/>
	</g>
</g>
</svg>
