<?xml version="1.0" encoding="utf-8"?>
<!-- Generator: Adobe Illustrator 17.1.0, SVG Export Plug-In . SVG Version: 6.00 Build 0)  -->
<!DOCTYPE svg PUBLIC "-//W3C//DTD SVG 1.1//EN" "http://www.w3.org/Graphics/SVG/1.1/DTD/svg11.dtd">
<svg version="1.1" id="Layer_1" xmlns="http://www.w3.org/2000/svg" xmlns:xlink="http://www.w3.org/1999/xlink" x="0px" y="0px"
	 width="24px" height="24px" viewBox="0 0 24 24" enable-background="new 0 0 24 24" xml:space="preserve">
<g>
	<path fill="#333333" d="M12,16.7c-3.8,0-7.2-1.8-8.5-4.5L3.4,12l0.1-0.2C4.8,9.1,8.2,7.3,12,7.3s7.2,1.8,8.5,4.5l0.1,0.2l-0.1,0.2
		C19.1,14.9,15.7,16.7,12,16.7z M4.5,12c1.2,2.3,4.1,3.7,7.4,3.7s6.2-1.5,7.4-3.7c-1.2-2.3-4.1-3.7-7.4-3.7S5.7,9.7,4.5,12z"/>
</g>
<g>
	<path fill="#333333" d="M12,14.6c-1.7,0-3.1-1.4-3.1-3.1s1.4-3.1,3.1-3.1s3.1,1.4,3.1,3.1S13.7,14.6,12,14.6z M12,9.4
		c-1.2,0-2.1,0.9-2.1,2.1s0.9,2.1,2.1,2.1s2.1-0.9,2.1-2.1S13.1,9.4,12,9.4z"/>
</g>
</svg>
