<?xml version="1.0" encoding="utf-8"?>
<!-- Generator: Adobe Illustrator 17.1.0, SVG Export Plug-In . SVG Version: 6.00 Build 0)  -->
<!DOCTYPE svg PUBLIC "-//W3C//DTD SVG 1.1//EN" "http://www.w3.org/Graphics/SVG/1.1/DTD/svg11.dtd">
<svg version="1.1" id="Layer_1" xmlns="http://www.w3.org/2000/svg" xmlns:xlink="http://www.w3.org/1999/xlink" x="0px" y="0px"
	 width="24px" height="24px" viewBox="0 0 24 24" enable-background="new 0 0 24 24" xml:space="preserve">
<g>
	<path fill="#333333" d="M11.2,23.3l-9.2-9V6h9.6l8.9,8.6L11.2,23.3z M3,13.9l8.2,8l7.9-7.4L11.2,7H3V13.9z"/>
</g>
<g>
	<polygon fill="#333333" points="20.7,12.3 12.4,4 4,4 4,3 12.8,3 21.4,11.6 	"/>
</g>
<g>
	<path fill="#333333" d="M7.2,12c-0.5,0-1-0.2-1.4-0.6C5.5,11,5.2,10.5,5.2,10c0-0.5,0.2-1,0.6-1.4c0.8-0.8,2.1-0.8,2.8,0
		C9,8.9,9.2,9.4,9.2,10c0,0.5-0.2,1-0.6,1.4C8.3,11.7,7.8,12,7.2,12z M7.2,9C7,9,6.7,9.1,6.5,9.2C6.4,9.4,6.2,9.7,6.2,10
		s0.1,0.5,0.3,0.7c0.4,0.4,1,0.4,1.4,0c0.2-0.2,0.3-0.4,0.3-0.7S8.1,9.4,8,9.2S7.5,9,7.2,9z"/>
</g>
</svg>
