<?xml version="1.0" encoding="utf-8"?>
<!-- Generator: Adobe Illustrator 17.1.0, SVG Export Plug-In . SVG Version: 6.00 Build 0)  -->
<!DOCTYPE svg PUBLIC "-//W3C//DTD SVG 1.1//EN" "http://www.w3.org/Graphics/SVG/1.1/DTD/svg11.dtd">
<svg version="1.1" id="Layer_1" xmlns="http://www.w3.org/2000/svg" xmlns:xlink="http://www.w3.org/1999/xlink" x="0px" y="0px"
	 width="24px" height="24px" viewBox="0 0 24 24" enable-background="new 0 0 24 24" xml:space="preserve">
<g>
	<path fill="#333333" d="M12,21.5l-9-9V4h9.2l9,8.7L12,21.5z M4,12.1l8,8l7.8-7.5l-8-7.7H4V12.1z"/>
</g>
<g>
	<path fill="#333333" d="M7.9,10.2c-0.5,0-1-0.2-1.4-0.6C6.1,9.2,5.9,8.7,5.9,8.2c0-0.5,0.2-1,0.6-1.4C7.2,6,8.5,6,9.3,6.7
		c0.4,0.4,0.6,0.9,0.6,1.4c0,0.5-0.2,1-0.6,1.4S8.4,10.2,7.9,10.2z M7.9,7.2c-0.3,0-0.5,0.1-0.7,0.3C7,7.6,6.9,7.9,6.9,8.2
		S7,8.7,7.1,8.9c0.4,0.4,1,0.4,1.4,0c0.2-0.2,0.3-0.4,0.3-0.7S8.7,7.6,8.6,7.4C8.4,7.3,8.1,7.2,7.9,7.2z"/>
</g>
</svg>
