<?xml version="1.0" encoding="utf-8"?>
<!-- Generator: Adobe Illustrator 17.1.0, SVG Export Plug-In . SVG Version: 6.00 Build 0)  -->
<!DOCTYPE svg PUBLIC "-//W3C//DTD SVG 1.1//EN" "http://www.w3.org/Graphics/SVG/1.1/DTD/svg11.dtd">
<svg version="1.1" id="Layer_1" xmlns="http://www.w3.org/2000/svg" xmlns:xlink="http://www.w3.org/1999/xlink" x="0px" y="0px"
	 width="24px" height="24px" viewBox="0 0 24 24" enable-background="new 0 0 24 24" xml:space="preserve">
<g>
	<path fill="#333333" d="M9.8,17.3C9,16,8.6,14.6,8.6,13.2c0-1.5,0.4-2.9,1.2-4.1l0.8,0.5c-0.7,1.1-1,2.3-1,3.6c0,1.3,0.4,2.5,1,3.6
		L9.8,17.3z"/>
</g>
<g>
	<path fill="#333333" d="M16.3,20.9c-1.6,0-3.1-0.5-4.4-1.4l0.6-0.8c1.1,0.8,2.5,1.2,3.8,1.2c3.7,0,6.7-3,6.7-6.7s-3-6.7-6.7-6.7
		c-1.4,0-2.7,0.4-3.8,1.2L12,6.8c1.3-0.9,2.8-1.4,4.4-1.4c4.2,0,7.7,3.5,7.7,7.7C24,17.4,20.6,20.9,16.3,20.9z"/>
</g>
<g>
	<path fill="#333333" d="M7.9,20.9c-4.2,0-7.7-3.5-7.7-7.7c0-4.2,3.5-7.7,7.7-7.7c4.2,0,7.7,3.5,7.7,7.7
		C15.6,17.4,12.2,20.9,7.9,20.9z M7.9,6.5c-3.7,0-6.7,3-6.7,6.7s3,6.7,6.7,6.7s6.7-3,6.7-6.7S11.6,6.5,7.9,6.5z"/>
</g>
</svg>
