<?xml version="1.0" encoding="utf-8"?>
<!-- Generator: Adobe Illustrator 17.1.0, SVG Export Plug-In . SVG Version: 6.00 Build 0)  -->
<!DOCTYPE svg PUBLIC "-//W3C//DTD SVG 1.1//EN" "http://www.w3.org/Graphics/SVG/1.1/DTD/svg11.dtd">
<svg version="1.1" id="Layer_1" xmlns="http://www.w3.org/2000/svg" xmlns:xlink="http://www.w3.org/1999/xlink" x="0px" y="0px"
	 width="24px" height="24px" viewBox="0 0 24 24" enable-background="new 0 0 24 24" xml:space="preserve">
<g>
	<g>
		<polygon fill="#333333" points="16,15 15,15 15,9 9,9 9,8 16,8 		"/>
	</g>
	<g>
		<rect x="8.5" y="6.5" transform="matrix(0.7071 0.7071 -0.7071 0.7071 13.2426 -1.9706)" fill="#333333" width="1" height="17"/>
	</g>
	<g>
		<g>
			<polygon fill="#333333" points="5,7.5 4,7.5 4,6.1 5.3,5.7 5.6,6.7 5,6.8 			"/>
		</g>
		<g>
			<path fill="#333333" d="M7.3,6.3L7,5.3l1.7-0.4l0.2,1L7.3,6.3z M10.6,5.4l-0.2-1L12,4l0.2,1L10.6,5.4z M13.9,4.6l-0.2-1l1.7-0.4
				l0.2,1L13.9,4.6z"/>
		</g>
		<g>
			<polygon fill="#333333" points="17.9,4.1 17.7,3.6 17.2,3.7 17,2.8 18.4,2.4 18.9,3.8 			"/>
		</g>
		<g>
			<path fill="#333333" d="M20.1,10.9l-0.5-1.7l1-0.3l0.5,1.7L20.1,10.9z M19,7.5l-0.5-1.7l1-0.3l0.5,1.7L19,7.5z"/>
		</g>
		<g>
			<polygon fill="#333333" points="20.9,14.3 20.3,13.5 20.8,13.2 20.6,12.6 21.6,12.3 22,13.6 			"/>
		</g>
		<g>
			<path fill="#333333" d="M14,19l-0.6-0.8l1.7-1.2l0.6,0.8L14,19z M17.5,16.7l-0.6-0.8l1.7-1.2l0.6,0.8L17.5,16.7z"/>
		</g>
		<g>
			<polygon fill="#333333" points="11.2,20.9 10.2,19.9 10.9,19.2 11.3,19.6 11.8,19.3 12.3,20.1 			"/>
		</g>
		<g>
			<path fill="#333333" d="M8.7,18.2l-1.5-1.5L7.9,16l1.5,1.5L8.7,18.2z M5.8,15.3l-1.5-1.5L5,13.1l1.5,1.5L5.8,15.3z M5,11H4V9h1
				V11z"/>
		</g>
	</g>
</g>
</svg>
