<?xml version="1.0" encoding="utf-8"?>
<!-- Generator: Adobe Illustrator 17.1.0, SVG Export Plug-In . SVG Version: 6.00 Build 0)  -->
<!DOCTYPE svg PUBLIC "-//W3C//DTD SVG 1.1//EN" "http://www.w3.org/Graphics/SVG/1.1/DTD/svg11.dtd">
<svg version="1.1" id="Layer_1" xmlns="http://www.w3.org/2000/svg" xmlns:xlink="http://www.w3.org/1999/xlink" x="0px" y="0px"
	 width="24px" height="24px" viewBox="0 0 24 24" enable-background="new 0 0 24 24" xml:space="preserve">
<g>
	<g>
		<polygon points="19,12 18,12 18,6 12,6 12,5 19,5 		"/>
	</g>
	<g>
		<rect x="11.4" y="3.5" transform="matrix(0.7071 0.7071 -0.7071 0.7071 12.031 -4.8954)" width="1" height="17.2"/>
	</g>
	<g>
		<path d="M19.2,20.1l-1.4-1.4l0.7-0.7l1.4,1.4L19.2,20.1z M16.4,17.2L15,15.8l0.7-0.7l1.4,1.4L16.4,17.2z M13.5,14.4L12.1,13
			l0.7-0.7l1.4,1.4L13.5,14.4z M10.7,11.6l-1.4-1.4L10,9.5l1.4,1.4L10.7,11.6z M7.9,8.7L6.5,7.3l0.7-0.7L8.6,8L7.9,8.7z M5.1,5.9
			L3.6,4.5l0.7-0.7l1.4,1.4L5.1,5.9z"/>
	</g>
</g>
</svg>
