<?xml version="1.0" encoding="utf-8"?>
<!-- Generator: Adobe Illustrator 17.1.0, SVG Export Plug-In . SVG Version: 6.00 Build 0)  -->
<!DOCTYPE svg PUBLIC "-//W3C//DTD SVG 1.1//EN" "http://www.w3.org/Graphics/SVG/1.1/DTD/svg11.dtd">
<svg version="1.1" id="Layer_1" xmlns="http://www.w3.org/2000/svg" xmlns:xlink="http://www.w3.org/1999/xlink" x="0px" y="0px"
	 width="24px" height="24px" viewBox="0 0 24 24" enable-background="new 0 0 24 24" xml:space="preserve">
<g>
	<g>
		<polygon points="21,9 20,9 20,4 15,4 15,3 21,3 		"/>
	</g>
	<g>
		<rect x="15.6" y="1.4" transform="matrix(0.7071 0.7071 -0.7071 0.7071 10.3225 -9.0208)" width="1" height="13.2"/>
	</g>
	<g>
		<g>
			<polygon points="18.7,18.5 18.4,17.5 19,17.4 19,16.8 20,16.8 20,18.2 			"/>
		</g>
		<g>
			<path d="M10,20.7l-0.2-1l2.2-0.5l0.2,1L10,20.7z M14.3,19.6l-0.2-1l2.2-0.5l0.2,1L14.3,19.6z"/>
		</g>
		<g>
			<polygon points="6.4,21.6 5.9,20.2 6.9,19.9 7,20.4 7.6,20.2 7.8,21.2 			"/>
		</g>
		<g>
			<path d="M5.4,18.6l-0.5-1.5l0.9-0.3l0.5,1.5L5.4,18.6z M4.4,15.5L3.9,14l0.9-0.3l0.5,1.5L4.4,15.5z"/>
		</g>
		<g>
			<polygon points="3.4,12.5 2.9,11.1 4.1,10.4 4.6,11.2 4.1,11.6 4.3,12.1 			"/>
		</g>
		<g>
			<path d="M6.2,10.1L5.7,9.3l1.6-1.1l0.6,0.8L6.2,10.1z M9.4,8L8.8,7.2l1.6-1.1L11,7L9.4,8z"/>
		</g>
		<g>
			<polygon points="13.5,6 13.1,5.6 12.6,5.9 12,5.1 13.2,4.3 14.2,5.3 			"/>
		</g>
		<g>
			<path d="M20,14.9h-1V13h1V14.9z M18.9,11.5l-1.4-1.3l0.7-0.7l1.4,1.3L18.9,11.5z M16.2,8.8l-1.4-1.3l0.7-0.7l1.4,1.3L16.2,8.8z"
				/>
		</g>
	</g>
</g>
</svg>
