<?xml version="1.0" encoding="utf-8"?>
<!-- Generator: Adobe Illustrator 17.1.0, SVG Export Plug-In . SVG Version: 6.00 Build 0)  -->
<!DOCTYPE svg PUBLIC "-//W3C//DTD SVG 1.1//EN" "http://www.w3.org/Graphics/SVG/1.1/DTD/svg11.dtd">
<svg version="1.1" id="Layer_1" xmlns="http://www.w3.org/2000/svg" xmlns:xlink="http://www.w3.org/1999/xlink" x="0px" y="0px"
	 width="40px" height="40px" viewBox="0 0 40 40" enable-background="new 0 0 40 40" xml:space="preserve">
<g>
</g>
<g>
	<g>
		<rect x="19.2" y="7" fill="#333333" width="1" height="26"/>
	</g>
	<g>
		<polygon fill="#333333" points="19.6,33.6 13.8,27.7 14.5,27 19.6,32.1 24.8,27 25.5,27.7 		"/>
	</g>
	<g>
		<path fill="#333333" d="M12.6,18.8H5v-1h7.6c0.9,0,1.5-0.3,2-0.7c0.8-0.9,0.7-2.4,0.7-2.5l0-7.5h1v7.5c0,0,0.2,1.9-1,3.2
			C14.7,18.4,13.7,18.8,12.6,18.8z"/>
	</g>
	<g>
		<path fill="#333333" d="M35,22.2h-7.7c-3.3,0-4.4-2.7-4.5-4.1l0-11.2h1v11.2c0,0.1,0.3,3.1,3.5,3.1H35V22.2z"/>
	</g>
	<g>
		<polygon fill="#333333" points="31.4,25.9 30.7,25.2 34,21.8 30.7,18.5 31.4,17.8 35.4,21.8 		"/>
	</g>
	<g>
		<polygon fill="#333333" points="8.6,22.2 4.6,18.2 8.6,14.1 9.3,14.8 6,18.2 9.3,21.5 		"/>
	</g>
</g>
</svg>
