<?xml version="1.0" encoding="utf-8"?>
<!-- Generator: Adobe Illustrator 17.1.0, SVG Export Plug-In . SVG Version: 6.00 Build 0)  -->
<!DOCTYPE svg PUBLIC "-//W3C//DTD SVG 1.1//EN" "http://www.w3.org/Graphics/SVG/1.1/DTD/svg11.dtd">
<svg version="1.1" id="Layer_1" xmlns="http://www.w3.org/2000/svg" xmlns:xlink="http://www.w3.org/1999/xlink" x="0px" y="0px"
	 width="24px" height="24px" viewBox="0 0 24 24" enable-background="new 0 0 24 24" xml:space="preserve">
<g>
	<path fill="#333333" d="M12,3c2.3,0,4.6,0.9,6.4,2.6c3.5,3.5,3.5,9.2,0,12.7C16.6,20.1,14.3,21,12,21c-2.3,0-4.6-0.9-6.4-2.6
		c-3.5-3.5-3.5-9.2,0-12.7C7.4,3.9,9.7,3,12,3 M12,2C9.3,2,6.8,3,4.9,4.9C1,8.8,1,15.2,4.9,19.1C6.8,21,9.3,22,12,22
		c2.7,0,5.2-1,7.1-2.9c3.9-3.9,3.9-10.2,0-14.1C17.2,3,14.7,2,12,2L12,2z"/>
</g>
<g>
	<path fill="#333333" d="M8,17.9V6.1L18.5,12L8,17.9z M9,7.8v8.4l7.5-4.2L9,7.8z"/>
</g>
</svg>
