<?xml version="1.0" encoding="utf-8"?>
<!-- Generator: Adobe Illustrator 17.1.0, SVG Export Plug-In . SVG Version: 6.00 Build 0)  -->
<!DOCTYPE svg PUBLIC "-//W3C//DTD SVG 1.1//EN" "http://www.w3.org/Graphics/SVG/1.1/DTD/svg11.dtd">
<svg version="1.1" id="Layer_1" xmlns="http://www.w3.org/2000/svg" xmlns:xlink="http://www.w3.org/1999/xlink" x="0px" y="0px"
	 width="24px" height="24px" viewBox="0 0 24 24" enable-background="new 0 0 24 24" xml:space="preserve">
<g>
	<g>
		<path fill="#333333" d="M12.1,21.5c-1.7,0-3.4-0.7-4.6-1.9S5.6,16.7,5.6,15s0.7-3.4,1.9-4.6s2.9-1.9,4.6-1.9s3.4,0.7,4.6,1.9
			c2.5,2.5,2.5,6.7,0,9.2C15.5,20.8,13.9,21.5,12.1,21.5z M12.1,9.5c-1.5,0-2.8,0.6-3.9,1.6S6.6,13.5,6.6,15s0.6,2.9,1.6,3.9
			s2.4,1.6,3.9,1.6s2.9-0.6,3.9-1.6c2.1-2.1,2.1-5.6,0-7.8C15,10,13.6,9.5,12.1,9.5z"/>
	</g>
	<g>
		<rect x="13.8" y="9.8" transform="matrix(0.7071 0.7071 -0.7071 0.7071 13.2519 -6.3204)" fill="#333333" width="1" height="6"/>
	</g>
	<g>
		<g>
			<rect y="15" fill="#333333" width="3" height="1"/>
		</g>
		<g>
			<rect x="21" y="15" fill="#333333" width="3" height="1"/>
		</g>
	</g>
	<g>
		<g>
			<rect x="19.1" y="6" transform="matrix(0.7071 0.7071 -0.7071 0.7071 11.0552 -11.6237)" fill="#333333" width="1" height="3"/>
		</g>
	</g>
	<g>
		<g>
			<rect x="11" y="3" fill="#333333" width="1" height="3"/>
		</g>
	</g>
	<g>
		<g>
			<rect x="3.2" y="7" transform="matrix(0.7072 0.707 -0.707 0.7072 6.705 -1.124)" fill="#333333" width="3" height="1"/>
		</g>
	</g>
</g>
</svg>
