<?xml version="1.0" encoding="utf-8"?>
<!-- Generator: Adobe Illustrator 17.1.0, SVG Export Plug-In . SVG Version: 6.00 Build 0)  -->
<!DOCTYPE svg PUBLIC "-//W3C//DTD SVG 1.1//EN" "http://www.w3.org/Graphics/SVG/1.1/DTD/svg11.dtd">
<svg version="1.1" id="Layer_1" xmlns="http://www.w3.org/2000/svg" xmlns:xlink="http://www.w3.org/1999/xlink" x="0px" y="0px"
	 width="24px" height="24px" viewBox="0 0 24 24" enable-background="new 0 0 24 24" xml:space="preserve">
<g>
	<g>
		<g>
			<g>
				<path fill="#333333" d="M12,21.9l-5.8-9.2c0-0.1-0.1-0.1-0.1-0.2C6,12.4,5.9,12.2,5.9,12C4.7,9.5,5.3,6.5,7.2,4.5
					c1.3-1.3,3-2,4.8-2s3.5,0.7,4.8,2c2,2,2.5,5.1,1.3,7.6c-0.1,0.2-0.2,0.4-0.4,0.7L12,21.9z M7.1,12.3l4.9,7.7l4.9-7.8
					c0.1-0.2,0.2-0.4,0.3-0.6c1-2.2,0.6-4.8-1.1-6.5c-1.1-1.1-2.5-1.7-4-1.7S9,4.1,8,5.2c-1.7,1.7-2.2,4.3-1.1,6.5
					c0,0.1,0.1,0.2,0.1,0.3C7,12.1,7.1,12.2,7.1,12.3z"/>
			</g>
		</g>
	</g>
	<g>
		<path fill="#333333" d="M12,12c-1.5,0-2.8-1.2-2.8-2.8s1.2-2.8,2.8-2.8s2.8,1.2,2.8,2.8S13.5,12,12,12z M12,7.5
			c-1,0-1.8,0.8-1.8,1.8S11,11,12,11s1.8-0.8,1.8-1.8S13,7.5,12,7.5z"/>
	</g>
</g>
</svg>
