<?xml version="1.0" encoding="utf-8"?>
<!-- Generator: Adobe Illustrator 17.1.0, SVG Export Plug-In . SVG Version: 6.00 Build 0)  -->
<!DOCTYPE svg PUBLIC "-//W3C//DTD SVG 1.1//EN" "http://www.w3.org/Graphics/SVG/1.1/DTD/svg11.dtd">
<svg version="1.1" id="Layer_1" xmlns="http://www.w3.org/2000/svg" xmlns:xlink="http://www.w3.org/1999/xlink" x="0px" y="0px"
	 width="40px" height="40px" viewBox="0 0 40 40" enable-background="new 0 0 40 40" xml:space="preserve">
<g>
</g>
<g>
	<g>
		<path fill="#333333" d="M24.2,35.8h-8.5c-1.1,0-2-0.9-2-2v-27c0-1.1,0.9-2,2-2h8.5c1.1,0,2,0.9,2,2v27
			C26.2,34.9,25.4,35.8,24.2,35.8z M15.8,5.8c-0.6,0-1,0.4-1,1v27c0,0.6,0.4,1,1,1h8.5c0.6,0,1-0.4,1-1v-27c0-0.6-0.4-1-1-1H15.8z"
			/>
	</g>
	<g>
		<circle fill="#333333" cx="20" cy="11" r="3.5"/>
		<path fill="#333333" d="M20,15c-2.2,0-4-1.8-4-4s1.8-4,4-4s4,1.8,4,4S22.2,15,20,15z M20,8c-1.7,0-3,1.3-3,3s1.3,3,3,3s3-1.3,3-3
			S21.7,8,20,8z"/>
	</g>
	<g>
		<path fill="#333333" d="M20,33c-2.2,0-4-1.8-4-4s1.8-4,4-4s4,1.8,4,4S22.2,33,20,33z M20,26c-1.7,0-3,1.3-3,3s1.3,3,3,3s3-1.3,3-3
			S21.7,26,20,26z"/>
	</g>
	<g>
		<path fill="#333333" d="M20,24c-2.2,0-4-1.8-4-4s1.8-4,4-4s4,1.8,4,4S22.2,24,20,24z M20,17c-1.7,0-3,1.3-3,3s1.3,3,3,3s3-1.3,3-3
			S21.7,17,20,17z"/>
	</g>
</g>
</svg>
