<?xml version="1.0" encoding="utf-8"?>
<!-- Generator: Adobe Illustrator 17.1.0, SVG Export Plug-In . SVG Version: 6.00 Build 0)  -->
<!DOCTYPE svg PUBLIC "-//W3C//DTD SVG 1.1//EN" "http://www.w3.org/Graphics/SVG/1.1/DTD/svg11.dtd">
<svg version="1.1" id="Layer_1" xmlns="http://www.w3.org/2000/svg" xmlns:xlink="http://www.w3.org/1999/xlink" x="0px" y="0px"
	 width="24px" height="24px" viewBox="0 0 24 24" enable-background="new 0 0 24 24" xml:space="preserve">
<g>
	<path fill="#333333" d="M21.2,21h-1v-2.5c0-1.2-0.8-2.2-2-2.5l-3.1-0.8c-0.7-0.2-1.3-0.8-1.4-1.6l0-0.8c0-0.4,0.1-0.8,0.3-1.1
		c0.8-1,1.2-2.3,1.2-3.5c0-3.1-1.1-4.6-3.3-4.6C9.7,3.5,8.6,5,8.6,8c0,1.3,0.4,2.6,1.2,3.5c0.3,0.4,0.4,0.8,0.4,1.2v0.7
		c0,0.9-0.6,1.6-1.5,1.7l-3.1,0.9c-1.2,0.3-2,1.3-2,2.5v2.5h-1v-2.5c0-1.6,1.1-3,2.7-3.4l3.1-0.9c0.4-0.1,0.7-0.4,0.7-0.7v-0.7
		c0-0.2,0-0.4-0.2-0.6C8.1,11,7.6,9.5,7.6,8c0-4.5,2.4-5.5,4.3-5.5c1.6,0,4.3,0.7,4.3,5.6c0,1.5-0.5,3-1.4,4.1
		c-0.1,0.2-0.1,0.3-0.1,0.6v0.7c0,0.2,0.3,0.6,0.7,0.7l3.1,0.8c1.6,0.4,2.7,1.8,2.7,3.4V21z"/>
</g>
</svg>
